<svg width="186" height="89" viewBox="0 0 186 89" fill="none" xmlns="http://www.w3.org/2000/svg">
<g clip-path="url(#clip0_22_3)">
<path d="M7 82V10L91.144 15.2844L180 10V82L91.144 72.0917L7 82Z" fill="#4ADE80"/>
<path d="M-110.872 51.448C-110.872 55.5867 -111.811 58.9573 -113.688 61.56C-115.523 64.12 -118.253 65.8907 -121.88 66.872C-119.917 68.7067 -116.632 69.624 -112.024 69.624V77.176C-116.973 77.176 -120.941 76.408 -123.928 74.872C-126.915 73.336 -129.133 70.968 -130.584 67.768C-136.045 67.5547 -140.227 66.0827 -143.128 63.352C-146.029 60.5787 -147.48 56.6107 -147.48 51.448V37.752C-147.48 32.376 -145.923 28.3227 -142.808 25.592C-139.651 22.8187 -135.107 21.432 -129.176 21.432C-123.245 21.432 -118.723 22.8187 -115.608 25.592C-112.451 28.3227 -110.872 32.376 -110.872 37.752V51.448ZM-119.896 37.752C-119.896 34.7653 -120.707 32.4827 -122.328 30.904C-123.907 29.2827 -126.189 28.472 -129.176 28.472C-132.163 28.472 -134.467 29.2827 -136.088 30.904C-137.667 32.4827 -138.456 34.7653 -138.456 37.752V51.448C-138.456 54.4347 -137.667 56.7387 -136.088 58.36C-134.467 59.9387 -132.163 60.728 -129.176 60.728C-126.189 60.728 -123.907 59.9387 -122.328 58.36C-120.707 56.7387 -119.896 54.4347 -119.896 51.448V37.752ZM-85.807 67.832C-91.6523 67.832 -96.0683 66.5947 -99.055 64.12C-102.042 61.6027 -103.535 58.1253 -103.535 53.688V22.2H-94.511V53.688C-94.511 58.424 -91.6097 60.792 -85.807 60.792C-80.0043 60.792 -77.103 58.424 -77.103 53.688V22.2H-68.079V53.688C-68.079 58.1253 -69.5723 61.6027 -72.559 64.12C-75.5457 66.5947 -79.9617 67.832 -85.807 67.832ZM-58.81 22.2H-49.786V67H-58.81V22.2ZM-8.471 60.024V67.064H-33.495C-36.5243 67.064 -38.8283 66.424 -40.407 65.144C-41.9857 63.8213 -42.775 61.7093 -42.775 58.808V54.072L-18.839 29.24H-41.815V22.2H-9.495V30.328L-34.583 56.888V57.528C-34.583 58.5093 -34.327 59.1707 -33.815 59.512C-33.2603 59.8533 -32.5137 60.024 -31.575 60.024H-8.471Z" fill="black"/>
<path d="M16.3775 22.2H36.0895C40.7828 22.2 44.3668 23.224 46.8415 25.272C49.3588 27.32 50.6175 30.2853 50.6175 34.168C50.6175 36.3013 49.9775 38.2213 48.6975 39.928C47.4175 41.6347 45.5615 42.808 43.1295 43.448C45.7748 43.96 47.9082 45.1973 49.5295 47.16C51.1508 49.08 51.9615 51.5973 51.9615 54.712C51.9615 58.5093 50.6175 61.5173 47.9295 63.736C45.2842 65.912 41.6575 67 37.0495 67H16.3775V22.2ZM35.8975 40.248C37.6042 40.248 38.9695 39.7573 39.9935 38.776C41.0602 37.752 41.5935 36.408 41.5935 34.744C41.5935 33.08 41.0602 31.7573 39.9935 30.776C38.9695 29.752 37.6042 29.24 35.8975 29.24H25.4015V40.248H35.8975ZM35.1295 59.96C37.7748 59.96 39.7375 59.448 41.0175 58.424C42.2975 57.3573 42.9375 55.7573 42.9375 53.624C42.9375 51.4907 42.2975 49.912 41.0175 48.888C39.7375 47.8213 37.7748 47.288 35.1295 47.288H25.4015V59.96H35.1295ZM76.3805 67.832C70.5352 67.832 66.1192 66.5947 63.1325 64.12C60.1458 61.6027 58.6525 58.1253 58.6525 53.688V22.2H67.6765V53.688C67.6765 58.424 70.5778 60.792 76.3805 60.792C82.1832 60.792 85.0845 58.424 85.0845 53.688V22.2H94.1085V53.688C94.1085 58.1253 92.6152 61.6027 89.6285 64.12C86.6418 66.5947 82.2258 67.832 76.3805 67.832ZM133.842 60.024V67.064H108.818C105.788 67.064 103.484 66.424 101.906 65.144C100.327 63.8213 99.5375 61.7093 99.5375 58.808V54.072L123.474 29.24H100.498V22.2H132.818V30.328L107.73 56.888V57.528C107.73 58.5093 107.986 59.1707 108.498 59.512C109.052 59.8533 109.799 60.024 110.738 60.024H133.842ZM171.217 60.024V67.064H146.193C143.163 67.064 140.859 66.424 139.281 65.144C137.702 63.8213 136.913 61.7093 136.913 58.808V54.072L160.849 29.24H137.873V22.2H170.193V30.328L145.105 56.888V57.528C145.105 58.5093 145.361 59.1707 145.873 59.512C146.427 59.8533 147.174 60.024 148.113 60.024H171.217Z" fill="white"/>
</g>
<defs>
<clipPath id="clip0_22_3">
<rect width="186" height="89" fill="white"/>
</clipPath>
</defs>
</svg>
