<svg width="352" height="96" viewBox="0 0 352 96" fill="none" xmlns="http://www.w3.org/2000/svg">
<path d="M158 82V10L242.144 15.2844L331 10V82L242.144 72.0917L158 82Z" fill="#4ADE80"/>
<path d="M40.128 51.448C40.128 55.5867 39.1893 58.9573 37.312 61.56C35.4773 64.12 32.7467 65.8907 29.12 66.872C31.0827 68.7067 34.368 69.624 38.976 69.624V77.176C34.0267 77.176 30.0587 76.408 27.072 74.872C24.0853 73.336 21.8667 70.968 20.416 67.768C14.9547 67.5547 10.7733 66.0827 7.872 63.352C4.97067 60.5787 3.52 56.6107 3.52 51.448V37.752C3.52 32.376 5.07733 28.3227 8.192 25.592C11.3493 22.8187 15.8933 21.432 21.824 21.432C27.7547 21.432 32.2773 22.8187 35.392 25.592C38.5493 28.3227 40.128 32.376 40.128 37.752V51.448ZM31.104 37.752C31.104 34.7653 30.2933 32.4827 28.672 30.904C27.0933 29.2827 24.8107 28.472 21.824 28.472C18.8373 28.472 16.5333 29.2827 14.912 30.904C13.3333 32.4827 12.544 34.7653 12.544 37.752V51.448C12.544 54.4347 13.3333 56.7387 14.912 58.36C16.5333 59.9387 18.8373 60.728 21.824 60.728C24.8107 60.728 27.0933 59.9387 28.672 58.36C30.2933 56.7387 31.104 54.4347 31.104 51.448V37.752ZM65.193 67.832C59.3477 67.832 54.9317 66.5947 51.945 64.12C48.9583 61.6027 47.465 58.1253 47.465 53.688V22.2H56.489V53.688C56.489 58.424 59.3903 60.792 65.193 60.792C70.9957 60.792 73.897 58.424 73.897 53.688V22.2H82.921V53.688C82.921 58.1253 81.4277 61.6027 78.441 64.12C75.4543 66.5947 71.0383 67.832 65.193 67.832ZM92.19 22.2H101.214V67H92.19V22.2ZM142.529 60.024V67.064H117.505C114.476 67.064 112.172 66.424 110.593 65.144C109.014 63.8213 108.225 61.7093 108.225 58.808V54.072L132.161 29.24H109.185V22.2H141.505V30.328L116.417 56.888V57.528C116.417 58.5093 116.673 59.1707 117.185 59.512C117.74 59.8533 118.486 60.024 119.425 60.024H142.529Z" fill="black"/>
<path d="M167.378 22.2H187.09C191.783 22.2 195.367 23.224 197.842 25.272C200.359 27.32 201.618 30.2853 201.618 34.168C201.618 36.3013 200.978 38.2213 199.698 39.928C198.418 41.6347 196.562 42.808 194.13 43.448C196.775 43.96 198.908 45.1973 200.53 47.16C202.151 49.08 202.962 51.5973 202.962 54.712C202.962 58.5093 201.618 61.5173 198.93 63.736C196.284 65.912 192.658 67 188.05 67H167.378V22.2ZM186.898 40.248C188.604 40.248 189.97 39.7573 190.994 38.776C192.06 37.752 192.594 36.408 192.594 34.744C192.594 33.08 192.06 31.7573 190.994 30.776C189.97 29.752 188.604 29.24 186.898 29.24H176.402V40.248H186.898ZM186.13 59.96C188.775 59.96 190.738 59.448 192.018 58.424C193.298 57.3573 193.938 55.7573 193.938 53.624C193.938 51.4907 193.298 49.912 192.018 48.888C190.738 47.8213 188.775 47.288 186.13 47.288H176.402V59.96H186.13ZM227.381 67.832C221.535 67.832 217.119 66.5947 214.133 64.12C211.146 61.6027 209.653 58.1253 209.653 53.688V22.2H218.677V53.688C218.677 58.424 221.578 60.792 227.381 60.792C233.183 60.792 236.085 58.424 236.085 53.688V22.2H245.109V53.688C245.109 58.1253 243.615 61.6027 240.629 64.12C237.642 66.5947 233.226 67.832 227.381 67.832ZM284.842 60.024V67.064H259.818C256.788 67.064 254.484 66.424 252.906 65.144C251.327 63.8213 250.538 61.7093 250.538 58.808V54.072L274.474 29.24H251.498V22.2H283.818V30.328L258.73 56.888V57.528C258.73 58.5093 258.986 59.1707 259.498 59.512C260.052 59.8533 260.799 60.024 261.738 60.024H284.842ZM322.217 60.024V67.064H297.193C294.163 67.064 291.859 66.424 290.281 65.144C288.702 63.8213 287.913 61.7093 287.913 58.808V54.072L311.849 29.24H288.873V22.2H321.193V30.328L296.105 56.888V57.528C296.105 58.5093 296.361 59.1707 296.873 59.512C297.427 59.8533 298.174 60.024 299.113 60.024H322.217Z" fill="white"/>
</svg>
