<svg width="154" height="89" viewBox="0 0 154 89" fill="none" xmlns="http://www.w3.org/2000/svg">
<g clip-path="url(#clip0_22_2)">
<path d="M43.128 51.448C43.128 55.5867 42.1893 58.9573 40.312 61.56C38.4773 64.12 35.7467 65.8907 32.12 66.872C34.0827 68.7067 37.368 69.624 41.976 69.624V77.176C37.0267 77.176 33.0587 76.408 30.072 74.872C27.0853 73.336 24.8667 70.968 23.416 67.768C17.9547 67.5547 13.7733 66.0827 10.872 63.352C7.97067 60.5787 6.52 56.6107 6.52 51.448V37.752C6.52 32.376 8.07733 28.3227 11.192 25.592C14.3493 22.8187 18.8933 21.432 24.824 21.432C30.7547 21.432 35.2773 22.8187 38.392 25.592C41.5493 28.3227 43.128 32.376 43.128 37.752V51.448ZM34.104 37.752C34.104 34.7653 33.2933 32.4827 31.672 30.904C30.0933 29.2827 27.8107 28.472 24.824 28.472C21.8373 28.472 19.5333 29.2827 17.912 30.904C16.3333 32.4827 15.544 34.7653 15.544 37.752V51.448C15.544 54.4347 16.3333 56.7387 17.912 58.36C19.5333 59.9387 21.8373 60.728 24.824 60.728C27.8107 60.728 30.0933 59.9387 31.672 58.36C33.2933 56.7387 34.104 54.4347 34.104 51.448V37.752ZM68.193 67.832C62.3477 67.832 57.9317 66.5947 54.945 64.12C51.9583 61.6027 50.465 58.1253 50.465 53.688V22.2H59.489V53.688C59.489 58.424 62.3903 60.792 68.193 60.792C73.9957 60.792 76.897 58.424 76.897 53.688V22.2H85.921V53.688C85.921 58.1253 84.4277 61.6027 81.441 64.12C78.4543 66.5947 74.0383 67.832 68.193 67.832ZM95.19 22.2H104.214V67H95.19V22.2ZM145.529 60.024V67.064H120.505C117.476 67.064 115.172 66.424 113.593 65.144C112.014 63.8213 111.225 61.7093 111.225 58.808V54.072L135.161 29.24H112.185V22.2H144.505V30.328L119.417 56.888V57.528C119.417 58.5093 119.673 59.1707 120.185 59.512C120.74 59.8533 121.486 60.024 122.425 60.024H145.529Z" fill="black"/>
<path d="M170.378 22.2H190.09C194.783 22.2 198.367 23.224 200.842 25.272C203.359 27.32 204.618 30.2853 204.618 34.168C204.618 36.3013 203.978 38.2213 202.698 39.928C201.418 41.6347 199.562 42.808 197.13 43.448C199.775 43.96 201.908 45.1973 203.53 47.16C205.151 49.08 205.962 51.5973 205.962 54.712C205.962 58.5093 204.618 61.5173 201.93 63.736C199.284 65.912 195.658 67 191.05 67H170.378V22.2ZM189.898 40.248C191.604 40.248 192.97 39.7573 193.994 38.776C195.06 37.752 195.594 36.408 195.594 34.744C195.594 33.08 195.06 31.7573 193.994 30.776C192.97 29.752 191.604 29.24 189.898 29.24H179.402V40.248H189.898ZM189.13 59.96C191.775 59.96 193.738 59.448 195.018 58.424C196.298 57.3573 196.938 55.7573 196.938 53.624C196.938 51.4907 196.298 49.912 195.018 48.888C193.738 47.8213 191.775 47.288 189.13 47.288H179.402V59.96H189.13ZM230.381 67.832C224.535 67.832 220.119 66.5947 217.133 64.12C214.146 61.6027 212.653 58.1253 212.653 53.688V22.2H221.677V53.688C221.677 58.424 224.578 60.792 230.381 60.792C236.183 60.792 239.085 58.424 239.085 53.688V22.2H248.109V53.688C248.109 58.1253 246.615 61.6027 243.629 64.12C240.642 66.5947 236.226 67.832 230.381 67.832ZM287.842 60.024V67.064H262.818C259.788 67.064 257.484 66.424 255.906 65.144C254.327 63.8213 253.538 61.7093 253.538 58.808V54.072L277.474 29.24H254.498V22.2H286.818V30.328L261.73 56.888V57.528C261.73 58.5093 261.986 59.1707 262.498 59.512C263.052 59.8533 263.799 60.024 264.738 60.024H287.842ZM325.217 60.024V67.064H300.193C297.163 67.064 294.859 66.424 293.281 65.144C291.702 63.8213 290.913 61.7093 290.913 58.808V54.072L314.849 29.24H291.873V22.2H324.193V30.328L299.105 56.888V57.528C299.105 58.5093 299.361 59.1707 299.873 59.512C300.427 59.8533 301.174 60.024 302.113 60.024H325.217Z" fill="white"/>
</g>
<defs>
<clipPath id="clip0_22_2">
<rect width="154" height="89" fill="white"/>
</clipPath>
</defs>
</svg>
