<svg xmlns="http://www.w3.org/2000/svg" xmlns:xlink="http://www.w3.org/1999/xlink" width="500" zoomAndPan="magnify" viewBox="0 0 375 374.999991" height="500" preserveAspectRatio="xMidYMid meet" version="1.0"><rect x="-37.5" width="450" fill="#ffffff" y="-37.499999" height="449.999989" fill-opacity="1"/><rect x="-37.5" width="450" fill="#ffffff" y="-37.499999" height="449.999989" fill-opacity="1"/><path fill="#4ade80" d="M 44.246094 300.421875 L 44.246094 181.300781 L 183.664062 190.042969 L 330.890625 181.300781 L 330.890625 300.421875 L 183.664062 284.027344 Z M 44.246094 300.421875 " fill-opacity="1" fill-rule="nonzero"/><path fill="#ffffff" d="M 59.785156 201.484375 L 92.445312 201.484375 C 100.21875 201.484375 106.160156 203.179688 110.257812 206.566406 C 114.429688 209.957031 116.515625 214.863281 116.515625 221.285156 C 116.515625 224.816406 115.457031 227.992188 113.335938 230.816406 C 111.214844 233.636719 108.140625 235.578125 104.109375 236.636719 C 108.492188 237.484375 112.027344 239.53125 114.714844 242.78125 C 117.398438 245.957031 118.742188 250.121094 118.742188 255.273438 C 118.742188 261.558594 116.515625 266.535156 112.0625 270.203125 C 107.679688 273.804688 101.671875 275.605469 94.035156 275.605469 L 59.785156 275.605469 Z M 92.125 231.34375 C 94.953125 231.34375 97.214844 230.53125 98.914062 228.910156 C 100.679688 227.214844 101.5625 224.992188 101.5625 222.238281 C 101.5625 219.484375 100.679688 217.296875 98.914062 215.671875 C 97.214844 213.980469 94.953125 213.132812 92.125 213.132812 L 74.734375 213.132812 L 74.734375 231.34375 Z M 90.855469 263.957031 C 95.238281 263.957031 98.488281 263.109375 100.609375 261.414062 C 102.730469 259.652344 103.792969 257.003906 103.792969 253.472656 C 103.792969 249.945312 102.730469 247.332031 100.609375 245.640625 C 98.488281 243.875 95.238281 242.992188 90.855469 242.992188 L 74.734375 242.992188 L 74.734375 263.957031 Z M 159.203125 276.980469 C 149.515625 276.980469 142.199219 274.933594 137.253906 270.839844 C 132.304688 266.675781 129.828125 260.921875 129.828125 253.582031 L 129.828125 201.484375 L 144.78125 201.484375 L 144.78125 253.582031 C 144.78125 261.414062 149.589844 265.332031 159.203125 265.332031 C 168.816406 265.332031 173.625 261.414062 173.625 253.582031 L 173.625 201.484375 L 188.578125 201.484375 L 188.578125 253.582031 C 188.578125 260.921875 186.101562 266.675781 181.152344 270.839844 C 176.203125 274.933594 168.886719 276.980469 159.203125 276.980469 Z M 254.410156 264.0625 L 254.410156 275.710938 L 212.949219 275.710938 C 207.925781 275.710938 204.109375 274.652344 201.496094 272.535156 C 198.878906 270.34375 197.570312 266.851562 197.570312 262.050781 L 197.570312 254.214844 L 237.230469 213.132812 L 199.164062 213.132812 L 199.164062 201.484375 L 252.714844 201.484375 L 252.714844 214.933594 L 211.144531 258.875 L 211.144531 259.933594 C 211.144531 261.558594 211.570312 262.652344 212.417969 263.214844 C 213.335938 263.78125 214.574219 264.0625 216.128906 264.0625 Z M 316.335938 264.0625 L 316.335938 275.710938 L 274.875 275.710938 C 269.855469 275.710938 266.039062 274.652344 263.421875 272.535156 C 260.804688 270.34375 259.5 266.851562 259.5 262.050781 L 259.5 254.214844 L 299.160156 213.132812 L 261.089844 213.132812 L 261.089844 201.484375 L 314.640625 201.484375 L 314.640625 214.933594 L 273.074219 258.875 L 273.074219 259.933594 C 273.074219 261.558594 273.496094 262.652344 274.34375 263.214844 C 275.261719 263.78125 276.5 264.0625 278.054688 264.0625 Z M 316.335938 264.0625 " fill-opacity="1" fill-rule="nonzero"/><path fill="#000000" d="M 132.167969 135.367188 C 132.167969 142.140625 130.636719 147.65625 127.574219 151.914062 C 124.578125 156.105469 120.121094 159.003906 114.203125 160.609375 C 117.40625 163.609375 122.769531 165.113281 130.289062 165.113281 L 130.289062 177.46875 C 122.210938 177.46875 115.734375 176.210938 110.859375 173.699219 C 105.984375 171.1875 102.363281 167.3125 99.996094 162.074219 C 91.078125 161.726562 84.253906 159.316406 79.519531 154.847656 C 74.785156 150.308594 72.414062 143.816406 72.414062 135.367188 L 72.414062 112.957031 C 72.414062 104.160156 74.957031 97.527344 80.042969 93.058594 C 85.195312 88.519531 92.613281 86.25 102.292969 86.25 C 111.972656 86.25 119.355469 88.519531 124.4375 93.058594 C 129.59375 97.527344 132.167969 104.160156 132.167969 112.957031 Z M 117.441406 112.957031 C 117.441406 108.070312 116.117188 104.335938 113.46875 101.75 C 110.894531 99.097656 107.167969 97.773438 102.292969 97.773438 C 97.417969 97.773438 93.65625 99.097656 91.011719 101.75 C 88.433594 104.335938 87.144531 108.070312 87.144531 112.957031 L 87.144531 135.367188 C 87.144531 140.257812 88.433594 144.027344 91.011719 146.679688 C 93.65625 149.261719 97.417969 150.554688 102.292969 150.554688 C 107.167969 150.554688 110.894531 149.261719 113.46875 146.679688 C 116.117188 144.027344 117.441406 140.257812 117.441406 135.367188 Z M 173.082031 162.179688 C 163.542969 162.179688 156.332031 160.15625 151.457031 156.105469 C 146.582031 151.984375 144.144531 146.296875 144.144531 139.035156 L 144.144531 87.507812 L 158.875 87.507812 L 158.875 139.035156 C 158.875 146.785156 163.609375 150.660156 173.082031 150.660156 C 182.554688 150.660156 187.289062 146.785156 187.289062 139.035156 L 187.289062 87.507812 L 202.019531 87.507812 L 202.019531 139.035156 C 202.019531 146.296875 199.582031 151.984375 194.707031 156.105469 C 189.832031 160.15625 182.625 162.179688 173.082031 162.179688 Z M 217.148438 87.507812 L 231.878906 87.507812 L 231.878906 160.816406 L 217.148438 160.816406 Z M 299.316406 149.402344 L 299.316406 160.921875 L 258.46875 160.921875 C 253.527344 160.921875 249.765625 159.875 247.1875 157.78125 C 244.609375 155.617188 243.324219 152.160156 243.324219 147.414062 L 243.324219 139.664062 L 282.394531 99.027344 L 244.890625 99.027344 L 244.890625 87.507812 L 297.644531 87.507812 L 297.644531 100.808594 L 256.695312 144.269531 L 256.695312 145.316406 C 256.695312 146.925781 257.113281 148.007812 257.949219 148.566406 C 258.855469 149.125 260.070312 149.402344 261.605469 149.402344 Z M 299.316406 149.402344 " fill-opacity="1" fill-rule="nonzero"/></svg>